first trial
nRows=36
nColumns=38

# SIMM Motion File Header:
name Sujet_03_velo_100.mvnx
datacolumns 38
datarows 36
otherdata 1
range 11.8330 12.4160
endheader
time pelvis_tilt  pelvis_list  pelvis_rotation  pelvis_tx  pelvis_ty  pelvis_tz  hip_flexion_r  hip_adduction_r  hip_rotation_r  knee_angle_r  ankle_angle_r  subtalar_angle_r  mtp_angle_r  hip_flexion_l  hip_adduction_l  hip_rotation_l  knee_angle_l  ankle_angle_l  subtalar_angle_l  mtp_angle_l  lumbar_extension  lumbar_bending  lumbar_rotation  arm_flex_r  arm_add_r  arm_rot_r  elbow_flex_r  pro_sup_r  wrist_flex_r  wrist_dev_r  arm_flex_l  arm_add_l  arm_rot_l  elbow_flex_l  pro_sup_l  wrist_flex_l  wrist_dev_l
11.8330	-21.8861	-0.7597	-85.8035	0.0000	1.2500	-0.0000	68.0045	-8.3270	-5.5389	90.6756	-3.1478	3.8405	-0.0000	67.3937	-3.9760	-8.2826	57.1637	10.3087	-6.5998	-0.0000	-14.7357	-0.0607	-0.2318	71.1394	10.3171	16.3924	2.1476	63.6372	-21.3420	-11.3536	78.1068	3.2460	14.0100	4.0215	64.4364	-28.5329	-15.1137	
11.8500	-21.8436	-1.3195	-86.4801	0.0000	1.2500	-0.0000	71.1711	-8.1304	-5.2467	95.7624	-1.1596	3.7775	-0.0000	63.5640	-3.8668	-8.1822	51.8215	8.1421	-6.2327	0.0000	-14.7136	0.0917	-0.0954	71.2607	10.6087	16.3666	2.2158	63.9270	-21.5440	-11.3831	77.6421	3.4095	14.1744	4.0935	64.0392	-28.3682	-15.1206	
11.8660	-21.7667	-1.7291	-87.2745	0.0000	1.2500	-0.0000	74.2494	-7.8884	-5.3844	99.9317	1.4351	2.9877	0.0000	60.0735	-3.9441	-7.2983	47.6911	5.8210	-5.9702	0.0000	-14.7043	0.1086	0.0492	71.4266	10.9208	16.2688	2.1181	64.3388	-21.8417	-11.5061	77.2855	3.4865	13.9952	4.1416	64.0695	-28.1972	-15.1624	
11.8830	-21.6616	-2.0469	-88.1252	0.0000	1.2500	-0.0000	77.2548	-7.6108	-5.8478	103.3389	4.4473	1.6461	-0.0000	56.8159	-4.2062	-5.9811	44.5052	3.4103	-5.7906	-0.0000	-14.7031	0.0429	0.1996	71.6192	11.2254	16.1017	1.9351	64.8381	-22.2116	-11.6829	76.9681	3.5081	13.6570	4.1864	64.2947	-28.0194	-15.2158	
11.9000	-21.5712	-2.3341	-88.8357	0.0000	1.2500	-0.0000	79.9888	-7.3142	-6.4864	105.7030	7.4124	-0.1005	-0.0000	54.0464	-4.5625	-4.9611	42.3457	1.5238	-5.5922	-0.0000	-14.7170	-0.0192	0.3350	71.8375	11.3981	15.8147	1.8067	65.3622	-22.6030	-11.8250	76.6852	3.5604	13.4065	4.2342	64.4108	-27.8629	-15.2325	
11.9160	-21.5172	-2.5972	-89.3421	0.0000	1.2500	-0.0000	82.4774	-6.9747	-7.4037	106.9061	10.3697	-2.4510	-0.0000	51.8234	-4.9301	-4.4451	41.2471	0.3727	-5.4070	0.0000	-14.7461	-0.0600	0.4481	72.0980	11.3637	15.3072	1.7893	65.9521	-23.0357	-11.8883	76.3764	3.6958	13.3722	4.3044	64.2334	-27.7385	-15.1818	
11.9330	-21.4810	-2.8312	-89.7092	0.0000	1.2500	-0.0000	84.7041	-6.6423	-8.4680	107.0978	13.1850	-5.1100	-0.0000	50.1006	-5.3494	-4.1939	41.1873	-0.2536	-5.2125	0.0000	-14.7905	-0.0977	0.5460	72.3815	11.1964	14.6820	1.8202	66.5666	-23.4904	-11.9182	76.1024	3.8613	13.4264	4.3752	63.9470	-27.6352	-15.0940	
11.9500	-21.4448	-3.0811	-89.9337	0.0000	1.2500	-0.0000	86.4152	-6.4059	-9.1488	106.3878	15.1842	-7.2273	0.0000	48.9843	-5.8769	-4.2521	42.2061	-0.3731	-4.8388	0.0000	-14.8595	-0.1009	0.6293	72.6358	10.9972	14.1937	1.8668	67.0197	-23.8571	-11.9603	76.0402	3.9851	13.4300	4.3916	63.8007	-27.5480	-15.0124	
11.9660	-21.4126	-3.4304	-89.9738	0.0000	1.2500	-0.0000	87.6100	-6.3089	-9.0313	104.7738	16.1738	-8.6931	-0.0000	48.5273	-6.5733	-4.8109	44.4449	0.2265	-4.1573	-0.0000	-14.9684	-0.0208	0.7000	72.8559	10.7726	13.9040	1.9369	67.2846	-24.0961	-12.0485	76.3270	4.0616	13.2958	4.3170	63.9357	-27.4707	-14.9529	
11.9830	-21.3826	-3.7957	-89.8711	0.0000	1.2500	-0.0000	88.2918	-6.2610	-8.5041	102.2441	16.4233	-9.6900	0.0000	48.6761	-7.3764	-5.6545	47.7925	1.3330	-3.2870	-0.0000	-15.1020	0.0939	0.7572	73.0482	10.5167	13.7512	2.0303	67.3884	-24.2466	-12.1481	76.8258	4.0973	13.1113	4.1909	64.2104	-27.4097	-14.8995	
12.0000	-21.3275	-3.9714	-89.7470	0.0000	1.2500	-0.0000	88.2109	-6.1370	-8.2452	98.8836	16.0436	-9.8894	-0.0000	49.3782	-8.1638	-6.2165	51.9016	2.3011	-2.4573	-0.0000	-15.2236	0.1292	0.7959	73.1806	10.3114	13.8041	2.1084	67.2270	-24.3163	-12.2009	77.3014	4.0381	12.9981	4.0716	64.4494	-27.3805	-14.8478	
12.0160	-21.2294	-3.8611	-89.6460	0.0000	1.2500	-0.0000	87.2393	-5.8699	-8.5048	94.5968	14.9511	-8.8232	-0.0000	50.7019	-8.9031	-6.2712	56.8751	2.9701	-1.6924	0.0000	-15.3258	0.0346	0.8125	73.2313	10.2107	14.2083	2.1630	66.6154	-24.2940	-12.1678	77.6734	3.8631	13.0320	3.9821	64.5573	-27.3870	-14.7925	
12.0330	-21.1050	-3.5616	-89.5245	0.0000	1.2500	-0.0000	85.5091	-5.5215	-9.0265	89.5091	13.2716	-6.9542	-0.0000	52.5874	-9.6217	-6.0282	62.6186	3.5257	-1.0153	0.0000	-15.4168	-0.1391	0.8093	73.2217	10.1601	14.8181	2.1951	65.7387	-24.1910	-12.0878	78.0226	3.5937	13.1384	3.8972	64.6297	-27.4251	-14.7387	
12.0500	-20.9774	-3.1563	-89.3709	0.0000	1.2500	-0.0000	83.1643	-5.1637	-9.7334	84.0140	11.4063	-5.3440	0.0000	54.7928	-10.2817	-5.5850	68.4835	3.8208	-0.6457	-0.0000	-15.4847	-0.3546	0.7885	73.1868	10.0806	15.2658	2.1865	65.0479	-24.0493	-12.0199	78.3552	3.2366	13.2123	3.8003	64.7781	-27.4981	-14.6987	
12.0660	-20.8543	-2.6068	-89.2120	0.0000	1.2500	-0.0000	80.1010	-4.7596	-10.8055	77.9592	9.4849	-4.4963	0.0000	57.2913	-10.8777	-4.8542	74.4079	3.6308	-0.6496	-0.0000	-15.5245	-0.6430	0.7507	73.1771	9.9585	15.3731	2.1005	64.7460	-23.8727	-11.9985	78.7024	2.7351	13.1757	3.6829	65.1037	-27.6202	-14.6717	
12.0830	-20.7266	-1.9519	-89.0220	0.0000	1.2500	-0.0000	76.4316	-4.3098	-12.0590	71.4388	7.3567	-3.9049	0.0000	60.1176	-11.3915	-3.9340	80.4728	3.1581	-0.9110	-0.0000	-15.5424	-0.9735	0.6962	73.1431	9.8083	15.3183	1.9805	64.6298	-23.6576	-11.9893	79.0344	2.1455	13.1099	3.5495	65.5048	-27.7769	-14.6583	
12.1000	-20.5925	-1.3903	-88.7092	0.0000	1.2500	-0.0000	72.6134	-3.9774	-12.8995	65.2407	4.9919	-3.1404	0.0000	63.1107	-11.7807	-3.2089	86.2037	2.8773	-1.3457	0.0000	-15.5418	-1.2152	0.6271	72.9709	9.5951	15.2674	1.9365	64.5415	-23.4348	-11.9484	79.2646	1.6433	13.1443	3.4062	65.7896	-27.9292	-14.6721	
12.1160	-20.4421	-1.0027	-88.1882	0.0000	1.2500	-0.0000	68.6050	-3.9013	-13.0461	59.4491	2.1997	-1.8918	0.0000	66.3095	-12.0435	-2.7962	91.5607	2.8322	-1.9893	-0.0000	-15.5122	-1.3017	0.5408	72.5644	9.3003	15.2545	2.0092	64.4586	-23.1984	-11.8460	79.3310	1.2580	13.3773	3.2301	65.8619	-28.0712	-14.7365	
12.1330	-20.2843	-0.7095	-87.5443	0.0000	1.2500	-0.0000	64.4291	-3.9909	-12.8394	54.0263	-0.8246	-0.5138	-0.0000	69.6604	-12.1867	-2.6102	96.4997	3.0006	-2.7998	-0.0000	-15.4627	-1.3004	0.4395	72.0211	8.9418	15.2415	2.1588	64.4037	-22.9545	-11.7121	79.2952	0.9600	13.7060	3.0496	65.8193	-28.2088	-14.8283	
12.1500	-20.1457	-0.4673	-86.9405	0.0000	1.2500	-0.0000	60.6350	-4.0860	-12.6068	49.6312	-3.5545	0.4578	0.0000	72.8548	-12.2179	-2.7239	100.5307	3.7477	-3.6254	-0.0000	-15.4262	-1.2804	0.3325	71.5170	8.5402	15.2879	2.3728	64.2857	-22.7512	-11.5930	79.2531	0.8353	13.9541	2.9496	65.7597	-28.3199	-14.8920	
12.1660	-20.0359	-0.2906	-86.4102	0.0000	1.2500	-0.0000	57.3473	-4.1224	-12.3624	46.4782	-5.9296	0.7766	0.0000	75.8735	-12.1731	-3.2595	103.5532	5.3939	-4.3880	0.0000	-15.4135	-1.2425	0.2243	71.0917	8.0495	15.4663	2.6952	64.0187	-22.6109	-11.4986	79.2170	1.0287	14.0043	2.9863	65.7186	-28.3880	-14.8968	
12.1830	-19.9475	-0.1635	-85.9189	0.0000	1.2500	-0.0000	54.4431	-4.1666	-12.0649	44.3573	-8.0407	0.7762	0.0000	78.7277	-12.0684	-4.0983	105.6949	7.5929	-5.1798	0.0000	-15.4135	-1.1853	0.1105	70.7066	7.5154	15.7043	3.0829	63.6862	-22.5109	-11.4186	79.1722	1.3945	13.9742	3.1023	65.6601	-28.4292	-14.8730	
12.2000	-19.8809	0.0047	-85.5272	0.0000	1.2500	-0.0000	52.1098	-4.2331	-11.9236	43.3129	-9.6016	0.7873	0.0000	81.1638	-11.8805	-4.9303	106.8356	9.7015	-6.1272	0.0000	-15.4277	-1.1736	-0.0114	70.4170	7.0981	15.8484	3.3916	63.4526	-22.4324	-11.3692	79.1723	1.5828	14.0386	3.2076	65.5729	-28.4705	-14.8570	
12.2160	-19.8332	0.2750	-85.2517	0.0000	1.2500	-0.0000	50.3815	-4.2967	-12.1252	43.4051	-10.4247	0.8553	0.0000	83.1965	-11.5690	-5.7214	106.9288	11.6333	-7.5129	-0.0000	-15.4631	-1.2469	-0.1619	70.2633	6.8762	15.8063	3.5583	63.4119	-22.3665	-11.3666	79.2322	1.4216	14.3535	3.2786	65.3920	-28.5279	-14.8636	
12.2330	-19.8075	0.5870	-85.0754	0.0000	1.2500	-0.0000	49.2280	-4.3791	-12.4703	44.5787	-10.6798	0.8892	0.0000	84.8234	-11.1671	-6.4947	106.0297	13.4530	-9.0423	0.0000	-15.5133	-1.3651	-0.3206	70.2029	6.7728	15.6735	3.6454	63.4722	-22.3221	-11.3946	79.3384	1.0826	14.7619	3.3395	65.1818	-28.5858	-14.8783	
12.2500	-19.8139	0.8481	-85.0091	0.0000	1.2500	-0.0000	48.7388	-4.5700	-12.5906	46.7062	-10.6090	0.9398	-0.0000	85.7702	-10.7217	-7.0128	104.1562	14.7933	-10.0426	-0.0000	-15.5605	-1.4742	-0.4293	70.1657	6.7162	15.5808	3.6953	63.5209	-22.3072	-11.4210	79.4999	0.7308	14.9680	3.3703	65.1245	-28.6240	-14.8945	
12.2660	-19.8627	1.0793	-85.0668	0.0000	1.2500	-0.0000	49.0056	-4.9457	-12.3935	49.8648	-10.1556	0.9172	0.0000	85.9519	-10.1912	-7.0006	101.2264	15.5319	-10.2060	-0.0000	-15.6069	-1.5864	-0.4606	70.1278	6.6953	15.5690	3.7074	63.5041	-22.3335	-11.4311	79.7828	0.3412	14.7546	3.3678	65.4006	-28.6393	-14.9038	
12.2830	-19.9451	1.2597	-85.2339	0.0000	1.2500	-0.0000	49.9423	-5.4244	-11.9560	53.9593	-9.3461	0.8735	-0.0000	85.4520	-9.5882	-6.7127	97.3256	15.8429	-9.9085	-0.0000	-15.6499	-1.6898	-0.4420	70.1135	6.7206	15.5976	3.6821	63.4756	-22.3895	-11.4399	80.1200	-0.0601	14.3402	3.3344	65.8296	-28.6348	-14.9146	
12.3000	-20.0425	1.2338	-85.4780	0.0000	1.2500	-0.0000	51.3699	-5.8584	-11.1699	58.6084	-8.5703	1.0824	0.0000	84.2513	-9.0287	-6.7019	92.7226	15.8216	-9.5046	0.0000	-15.6652	-1.6941	-0.3962	70.1243	6.7519	15.6746	3.6633	63.4852	-22.4489	-11.4591	80.3191	-0.2334	14.0795	3.2601	66.0515	-28.6002	-14.9455	
12.3160	-20.1546	0.8970	-85.7935	0.0000	1.2500	-0.0000	53.3082	-6.1859	-9.8638	63.8807	-8.0151	1.7140	0.0000	82.2462	-8.5282	-7.2898	87.3056	15.4879	-9.0318	-0.0000	-15.6436	-1.5419	-0.3234	70.1666	6.7621	15.8743	3.6503	63.5121	-22.5005	-11.5128	80.3347	-0.0120	14.1332	3.1021	65.8979	-28.5169	-15.0128	
12.3330	-20.2776	0.3527	-86.1875	0.0000	1.2500	-0.0000	55.7523	-6.4179	-8.2269	69.7233	-7.5188	2.6189	0.0000	79.5518	-8.0445	-8.1539	81.1878	14.8169	-8.4093	-0.0000	-15.5962	-1.2903	-0.2229	70.2341	6.7790	16.1223	3.6437	63.5771	-22.5551	-11.5766	80.2138	0.4368	14.3404	2.8973	65.5338	-28.4033	-15.1000	
12.3500	-20.3883	-0.2429	-86.6480	0.0000	1.2500	-0.0000	58.4730	-6.5403	-6.7015	75.5961	-6.9810	3.6164	-0.0000	76.4770	-7.6186	-8.8904	74.9639	13.8131	-7.7789	-0.0000	-15.5288	-1.0205	-0.1150	70.3094	6.8433	16.2029	3.6893	63.7928	-22.6200	-11.5895	79.9023	0.8511	14.5717	2.7574	65.1020	-28.3051	-15.1756	
12.3660	-20.4815	-0.8724	-87.1692	0.0000	1.2500	-0.0000	61.4734	-6.5540	-5.3305	81.4938	-6.5793	4.9225	-0.0000	72.9466	-7.2663	-9.4761	68.5518	12.4106	-7.1631	-0.0000	-15.4320	-0.7270	-0.0113	70.3898	6.9915	15.9827	3.8157	64.2474	-22.6777	-11.5005	79.2867	1.1536	14.8825	2.7305	64.5348	-28.2469	-15.2305	
12.3830	-20.5595	-1.5532	-87.7566	0.0000	1.2500	-0.0000	64.7406	-6.4586	-4.1013	87.4135	-6.1468	6.3605	0.0000	69.0270	-6.9853	-9.9654	62.0265	10.6698	-6.5222	0.0000	-15.3168	-0.4141	0.0988	70.4773	7.1864	15.5948	3.9901	64.8518	-22.7465	-11.3612	78.4812	1.4277	15.2211	2.7660	63.9024	-28.2040	-15.2737	
12.4000	-20.6126	-2.1798	-88.4115	0.0000	1.2500	-0.0000	68.0058	-6.2951	-3.3571	92.7959	-5.0453	7.1122	0.0000	65.2241	-6.8359	-10.0781	56.2396	8.7779	-5.9204	-0.0000	-15.2169	-0.1788	0.2292	70.5612	7.3573	15.2233	4.1661	65.4520	-22.8856	-11.2645	77.7708	1.6501	15.2944	2.8415	63.5576	-28.1485	-15.3016	
12.4160	-20.6283	-2.7247	-89.1926	0.0000	1.2500	-0.0000	71.2605	-6.1234	-3.2598	97.6177	-2.9298	6.8724	0.0000	61.5806	-6.9098	-9.5625	51.3688	6.6130	-5.3490	-0.0000	-15.1372	-0.0680	0.3934	70.6246	7.5168	14.9461	4.3326	66.0205	-23.1290	-11.2581	77.2662	1.7994	14.8072	2.9570	63.8004	-28.0594	-15.3119	
